<?xml version="1.0" encoding="utf-8"?>
<!-- Generator: Adobe Illustrator 24.3.0, SVG Export Plug-In . SVG Version: 6.00 Build 0)  -->
<svg version="1.1" id="圖層_1" xmlns="http://www.w3.org/2000/svg" xmlns:xlink="http://www.w3.org/1999/xlink" x="0px" y="0px"
	 viewBox="0 0 382.23 68.03" style="enable-background:new 0 0 382.23 68.03;" xml:space="preserve">
<style type="text/css">
	.st0{fill:#E34D0D;}
	.st1{fill:#EA5703;}
	.st2{fill:none;}
	.st3{fill:#262626;}
</style>
<g>
	<polygon class="st0" points="79.25,66.65 79.42,66.65 79.27,66.56 	"/>
	<path class="st1" d="M99.25,26.35c-2.04-3.03-5.48-4.16-10.42-4.16c-4.76,0-10.03,1.73-15.7,5.98l1.07-5.03c0,0-7.8,0-9.73,0
		c-3.9,0-5.17,1.12-5.63,2.96c-0.44,1.79-8.63,40.62-8.63,40.62h15.42l4.96-23.32c1.52-7.33,6.22-7.77,9.27-7.51
		c2.35,0.21,5.61,1.29,4.65,6.83l-5.08,23.91h15.25l5.93-27.9C101.71,33.55,101.29,29.39,99.25,26.35z"/>
	<path class="st1" d="M119.51,23.06c-5.05-0.05-5.62,2.22-5.91,3.43c-0.34,1.45-8.54,40.15-8.54,40.15h15.42l9.26-43.58
		C129.76,23.06,124.4,23.11,119.51,23.06z"/>
	<path class="st1" d="M103.01,1.05H71.55h-5.86h-5.86l-0.84,0.04l-0.85,0.04C43.58,1.05,37.41,9.68,35.67,17.78l-0.61,2.6l-0.61,2.6
		l-0.82,3.81l-0.82,3.81l-0.57,2.72l-0.57,2.72l-1.08,5.08l-1.08,5.08c-0.6,2.82-1.59,4.94-2.99,6.36c-1.4,1.42-3.19,2.13-5.4,2.13
		c-2.12,0-3.57-0.71-4.34-2.13c-0.77-1.42-0.86-3.54-0.26-6.36l2.33-11.61l2.33-11.61c0.02-0.17,0.04-0.39,0.06-0.62l4.42-20.77
		c0,0-7.95,0-10.56,0c-4.77,0-5.28,1.99-5.69,3.89C9.03,7.18,6,21.46,6,21.46L1.31,45.17L0.54,48.8c-0.63,2.95-0.71,5.59-0.24,7.93
		c0.47,2.34,1.48,4.38,3.07,6.11c1.58,1.73,3.6,3.03,6.08,3.9c2.48,0.87,5.42,1.3,8.84,1.3c3.47,0,6.63-0.43,9.51-1.29
		c2.88-0.86,5.47-2.13,7.78-3.82c2.32-1.73,4.2-3.77,5.66-6.11c1.46-2.34,2.5-4.98,3.13-7.93l0.02-0.09l2.6-12.21l2.59-12.21
		c1.42-6.04,6.09-9.56,14.49-9.75h2.95h2.95h30.58h31.05l2.89-13.58H103.01z"/>
	<g>
		<path class="st2" d="M175.57,57.46c-0.5,0-1-0.01-1.49-0.03C174.34,57.47,174.67,57.46,175.57,57.46z"/>
		<path class="st2" d="M169.88,55.51c-0.02,0.06-0.04,0.12-0.06,0.18c0.04-0.11,0.07-0.2,0.11-0.31L169.88,55.51z"/>
		<path class="st2" d="M169.55,56.5c-0.04,0.12-0.08,0.25-0.12,0.37c0.13-0.38,0.26-0.78,0.39-1.18
			C169.73,55.97,169.64,56.25,169.55,56.5z"/>
		<path class="st2" d="M169.65,56.17l0.23-0.66c0.56-1.77,1.08-3.69,1.55-5.81C170.9,52.09,170.3,54.21,169.65,56.17z"/>
		<path class="st2" d="M174.07,57.43c0.5,0.02,0.99,0.03,1.49,0.03c0.02,0,0.04-0.01,0.06-0.01c-0.63-0.01-1.25-0.03-1.87-0.08
			C173.87,57.4,173.97,57.42,174.07,57.43z"/>
		<path class="st3" d="M175.62,57.45c0.17,0,0.34,0.01,0.51,0.01c1.04,0,1.62-0.67,1.78-2c0.51-3.25,0.96-10.71,1.4-22.53h-0.57
			c-0.44,11.82-0.89,19.28-1.4,22.53C177.19,56.77,176.62,57.43,175.62,57.45z"/>
		<path class="st3" d="M173.76,57.38c-0.5-0.03-1-0.08-1.5-0.14c-0.01,0.02-0.01,0.04-0.02,0.07c0.61,0.06,1.22,0.11,1.83,0.13
			C173.97,57.42,173.87,57.4,173.76,57.38z"/>
		<path class="st3" d="M172.26,57.24c0.5,0.06,1,0.11,1.5,0.14c-0.26-0.06-0.61-0.16-1.43-0.34
			C172.3,57.11,172.28,57.17,172.26,57.24z"/>
		<path class="st3" d="M380.47,12.41l1.76-8.34h-58.37c0.04,0,0.06,0,0.08,0c0.02,0,0.03,0,0.02,0c0.01,0,0,0-0.02,0
			c-0.08,0-0.59,0-2,0c-3.07,0-4.27,1.41-4.27,3.69V8.6v3.8h26.3V66.4h8.94V33.17c7.02,3.62,13.81,7.83,20.46,12.7l2.21-10.44
			c-7.13-4.78-14.7-9.09-22.67-12.82v-10.2H380.47z"/>
		<g>
			<path class="st3" d="M274.73,24.52c0.07-1.92,0.14-6.43,0.14-13.52h21.9l1.78-8.42h-48.37c0.04,0,0.06,0,0.08,0s0.03,0,0.02,0
				c0.01,0,0,0-0.02,0c-0.08,0-0.59,0-2,0c-3.03,0-4.24,1.38-4.27,3.6v4.82h22.23c0.04,7.33-0.04,12.87-0.07,13.52h-21.13
				c-3.02,0.02-4.21,1.42-4.21,3.69c0,0.27,0,0.85,0,0.85v3.88h24.16c-1.03,4.65-2.81,8.57-5.47,11.82
				c-4.24,5.06-10.4,9.16-18.43,12.26l1.86,8.78c9.88-3.4,17.63-8.19,23.3-14.54c2.14-2.51,3.91-5.39,5.24-8.57
				c2.36,4.73,5.24,8.79,8.72,12.04c4.2,4.36,10.33,8.42,18.38,12.25l2-9.45c-7.75-3.45-13.79-7.88-18.09-13.22
				c-2.88-3.25-5.24-7.01-7.17-11.37h24.35l1.78-8.42H274.73z"/>
		</g>
		<g>
			<path class="st3" d="M199.43,7.2c0.59-1.55,1.11-3.18,1.63-4.87l-4.79-1.42c-2.22-0.4-3.49,0.51-4.12,2.29
				c-0.02,0.07-0.06,0.13-0.08,0.2c-0.02,0.05-0.04,0.12-0.06,0.19c-0.83,2.4-1.83,4.87-3,7.42c-0.81,1.92-1.7,3.69-2.74,5.39v-5.98
				h-8.71V0h-2.45c0.04,0,0.06,0,0.08,0c-0.08,0-0.59,0-2,0c-3.06,0-4.26,1.4-4.27,3.66v6.75h-3.33c0.04,0,0.06,0,0.08,0
				c-0.08,0-0.59,0-2,0c-3.07,0-4.27,1.41-4.27,3.69v0.85v3.51h6.34v6.06c0,6.72-0.58,13.15-1.77,19.35
				c-1.33,6.35-3.32,12.11-5.98,17.28l7.17,5.54c1.42-2.56,2.77-5.55,4-9.08l0.5-1.45c0.65-1.96,1.25-4.08,1.77-6.46
				c1.18-5.17,1.99-10.71,2.44-16.77h0.57h4.3h0.57c-0.44,11.82-0.89,19.28-1.4,22.53c-0.15,1.33-0.74,2-1.78,2
				c-0.17,0-0.34-0.01-0.51-0.01c-0.02,0-0.04,0.01-0.06,0.01c-0.89,0-1.23,0-1.49-0.03c-0.61-0.02-1.22-0.07-1.83-0.13
				c-1.16,3.54-2.46,6.88-2.46,6.88c1.65,0.54,5.42,1.92,7.26,1.92c2.73,0,4.88-1.25,6.35-3.69c1.94-3.54,3.11-14.86,3.36-33.89
				c0,0,0-0.01,0-0.01c0-2.26-1.19-3.66-4.2-3.69h-8.39v-6.36h10.93c-0.67,1.03-1.33,2-1.99,2.88l6.35,5.21
				c0.33-0.41,0.66-0.85,0.99-1.32l2.52-4.02c1.04-1.79,2.11-3.79,3.14-5.96c0,0,0.07-0.15,0.15-0.3l25.51,0.03l1.64-7.75
				L199.43,7.2z"/>
			<path class="st3" d="M215.01,43.72c2.59-1.63,7.22-5.22,8.22-6.21c-1.56-2.5-3.2-6.67-3.2-6.67c-2.42,2.12-4.88,3.95-7.31,5.5
				c-0.74-2.96-1.33-6.43-1.78-10.27c3.92-0.82,8.82-2.08,9.51-2.37c-1.25-2.88-2.45-7.27-2.45-7.27
				c-4.08,1.27-9.94,2.48-14.08,3.43c-3.36,0.8-6.36,1.42-8.99,1.86c-0.27,0.05-0.52,0.08-0.79,0.12c-0.96,0.21-1.64,0.64-2.08,1.24
				c-0.06,0.09-0.12,0.19-0.17,0.28c-0.3,0.55-0.45,1.2-0.46,1.97c0,6.04,0,32.25,0,34.24c0,2.48,0.46,8.6,9.79,5.8
				c4.59-1.38,8.8-2.83,9.93-3.35c-2.25-2.65-3.84-6.44-3.84-6.44c-2.52,0.74-5.1,1.48-7.83,2.14v-29.6
				c1.33-0.15,2.65-0.3,4.06-0.59c1.03,8.57,2.66,15.51,4.88,20.9c2.29,6.28,6.5,12.34,12.7,18.24l0.03-0.04l2.12-10.03
				c-3.75-4.15-6.42-8.24-7.99-12.24C215.15,44.24,215.09,44.02,215.01,43.72z"/>
		</g>
	</g>
</g>
</svg>
